<svg xmlns="http://www.w3.org/2000/svg" xml:space="preserve" baseProfile="basic" viewBox="0 0 90 90">
  <path fill="#FCCC86" d="M56.3 66.4c-1.5-2.5-3.7-5.2-8-4.5l-12.7 2.3c-4.4.4-7.5-3.4-11.8-3l-7.8.6L18.2 87l8.7-.8c6-.5 11.6 4.3 17.2 3.8 6-.6 22.3-11.1 39.2-21.7 1-.6 1.4-2 .8-3.2-3.5-5.7-8.9-7.4-13.3-5.4l-14.5 6.7z"/>
  <path fill="#EFAA65" d="M39.2 74.3c3-.2 6.2-1 9.3-1.9a85 85 0 0 0 9.2-3.4l-.1.4-1.3-3 1.9 2.7v.4H58a87 87 0 0 1-8.4 5.5 45 45 0 0 1-9.5 4.2 2.5 2.5 0 1 1-1-4.9z"/>
  <path fill="#3886C6" d="M18.5 90H8c-1.3 0-2.3-1-2.3-2.3V58.9c0-1.3 1-2.3 2.3-2.3h10.6c1.3 0 2.4 1 2.4 2.3v28.8c0 1.3-1 2.3-2.4 2.3z"/>
  <circle cx="52.1" cy="26.5" r="26.5" fill="#FFC843"/>
  <circle cx="52.1" cy="26.5" r="20.6" fill="#D38700"/>
  <path fill="#FFC843" d="M57.1 34a8.7 8.7 0 0 1-10.7-3h7a2 2 0 0 0 0-4h-8.5v-2h8.4a2 2 0 0 0 0-4h-6.9a8.8 8.8 0 0 1 10.7-3 2 2 0 1 0 1.6-3.8A12.8 12.8 0 0 0 41.9 21h-1.7a2 2 0 0 0 0 4h.7v2h-.7a2 2 0 0 0 0 4H42a12.8 12.8 0 0 0 16.8 6.7 2 2 0 1 0-1.6-3.7z"/>
</svg>
